<?xml version="1.0" ?><!DOCTYPE svg  PUBLIC '-//W3C//DTD SVG 1.1//EN'  'http://www.w3.org/Graphics/SVG/1.1/DTD/svg11.dtd'><svg viewBox="0 0 512 512" xmlns="http://www.w3.org/2000/svg" xmlns:xlink="http://www.w3.org/1999/xlink"><style>:root>svg{display:none}:root>svg:target{display:block}</style><svg style="enable-background:new 0 0 120 120" viewBox="0 0 120 120" xml:space="preserve" id="arrow-first" xmlns="http://www.w3.org/2000/svg"><path d="M47.1 29.9 15.7 56.6c-2.1 1.8-2.1 5.1 0 6.8l31.4 26.7c2.9 2.5 7.4.4 7.4-3.4v-18h46.9c2.5 0 4.5-2 4.5-4.5v-8.5c0-2.5-2-4.5-4.5-4.5H54.5V33.3c0-3.8-4.5-5.9-7.4-3.4z" style="fill:#386bff"/></svg><svg viewBox="0 0 32 32" id="call"><path fill="#4b6c85" d="m21.5 24.2 1.5-1.5c.4-.4.4-1 0-1.4l-2.2-2.2c-.3-.3-.9-.4-1.3-.1l-1.9 1.3 3.9 3.9zM9.2 11.9l1.3-1.9c.3-.4.2-.9-.1-1.3L8.1 6.5c-.4-.4-1-.4-1.4 0L5.2 7.9l4 4z"/><path fill="#607d95" d="m22.9 21.3-2.2-2.2c-.3-.3-.9-.4-1.3-.1l-2.2 1.5c-.8.5-1.8.4-2.5-.2l-5.5-5.5c-.6-.8-.7-1.8-.2-2.6l1.5-2.2c.3-.4.2-.9-.1-1.3L8.1 6.5c-.4-.4-1-.4-1.4 0l-2 1.9c-1 1-1.4 2.4-1.1 3.8.6 2.3 1.7 4.3 3.4 6l4.1 4.1c1.7 1.7 3.7 2.8 6 3.4 1.4.3 2.8-.1 3.8-1.1l1.9-1.9c.5-.4.5-1 .1-1.4z"/><path fill="#4b6c85" d="M18.5 24.5c-2.3-.6-4.4-1.8-6.1-3.4l-4.2-4.2c-1.7-1.7-2.9-3.8-3.4-6.1-.2-.9-.1-1.9.3-2.8l-.4.4c-1 1-1.4 2.4-1.1 3.8.6 2.3 1.7 4.3 3.4 6l4.1 4.1c1.7 1.7 3.7 2.8 6 3.4 1.4.3 2.8-.1 3.8-1.1l.5-.5c-.8.5-1.8.7-2.9.4z"/><path fill="#40657c" d="M22.6 21c-.6.6-1.7.6-2.3 0l-1.6-1.6-1.2.8 4 4 1.5-1.5c.4-.4.4-1 0-1.4l-.4-.3zM10.1 8.5c-.5.7-1.5.8-2.1.2L6.2 6.9l-1 1 4 4 1.3-1.9c.3-.4.2-.9-.1-1.3l-.3-.2z"/><path fill="#004463" d="M18.2 26.3c-.4 0-.7 0-1.1-.1-2.4-.6-4.5-1.8-6.2-3.5l-4.1-4.1c-1.7-1.7-2.9-3.9-3.5-6.2-.5-1.6 0-3.2 1.1-4.4l1.9-1.9c.6-.6 1.5-.6 2.1 0l2.2 2.2c.5.5.6 1.3.2 1.9l-1.5 2.2c-.3.6-.2 1.4.3 1.9l5.5 5.5c.5.5 1.3.6 1.9.2l2.2-1.5c.6-.4 1.4-.3 1.9.2l2.2 2.2c.3.3.4.7.4 1.1 0 .4-.2.8-.4 1.1L21.4 25c-.9.9-2.1 1.3-3.2 1.3zM7.4 6.7c-.1 0-.3 0-.4.1L5.1 8.7c-.9.9-1.2 2.1-.9 3.3.5 2.2 1.7 4.2 3.3 5.7l4.1 4.1c1.6 1.6 3.6 2.7 5.7 3.3 1.2.3 2.5-.1 3.3-.9l1.9-1.9c.1-.1.1-.2.1-.4 0-.1-.1-.3-.1-.4l-2.2-2.2c-.2-.2-.4-.2-.6-.1l-2.2 1.5c-1 .7-2.3.5-3.2-.3L8.9 15c-.8-.8-1-2.2-.3-3.2L10 9.7c.1-.2.1-.5-.1-.6L7.7 6.8c-.1-.1-.2-.1-.3-.1z"/><path fill="#004463" d="M9.2 12.2c-.1 0-.3 0-.4-.1L5.2 8.6c-.2-.2-.2-.5 0-.7.2-.2.5-.2.7 0l3.6 3.5c.2.2.2.5 0 .7-.1.1-.2.1-.3.1zm12 12.1c-.1 0-.3 0-.4-.1l-3.5-3.5c-.2-.2-.2-.5 0-.7s.5-.2.7 0l3.5 3.5c.2.2.2.5 0 .7-.1 0-.2.1-.3.1zm1-5.8c.4-.4 1-.4 1.4 0 .4.4.4 1 0 1.4m3.7 1h-.1c-.3-.1-.4-.3-.4-.6.4-1.4 0-2.9-1-3.9s-2.5-1.4-3.9-1c-.3.1-.5-.1-.6-.4-.1-.3.1-.5.4-.6 1.7-.5 3.6 0 4.8 1.3 1.3 1.3 1.8 3.1 1.3 4.8-.1.2-.3.4-.5.4z"/><path fill="#004463" d="M25.4 20.3h-.1c-.3-.1-.4-.3-.4-.6.2-.7 0-1.4-.5-1.9s-1.2-.7-1.9-.5c-.3.1-.5-.1-.6-.4-.1-.3.1-.5.4-.6 1-.3 2.1 0 2.9.8.8.8 1.1 1.9.8 2.9-.2.2-.4.3-.6.3z"/></svg><svg viewBox="0 0 50 50" xml:space="preserve" id="coding" xmlns="http://www.w3.org/2000/svg"><path d="M46.894 5.313H3.106A2.106 2.106 0 0 0 1 7.418V34.69c0 1.163.943 2.106 2.106 2.106h43.788A2.106 2.106 0 0 0 49 34.69V7.42a2.106 2.106 0 0 0-2.106-2.106z" fill="#E7E3E6"/><path fill="#656766" d="M3.662 7.835h42.677v23.749H3.662z"/><path fill="#806292" d="M24.999 7.835h21.339v11.874H24.999z"/><path fill="#4E4C4D" d="M24.999 19.709h21.339v11.874H24.999z"/><path fill="#656766" d="M3.662 7.835h21.339v11.874H3.662zM3.662 19.709h21.339v11.874H3.662z"/><path d="m39.746 13.517-1.223-1.223a.36.36 0 1 0-.51.51l.969.968-.968.968a.36.36 0 1 0 .51.51l1.222-1.224a.36.36 0 0 0 0-.51zM33.563 12.294a.36.36 0 0 0-.51 0l-1.223 1.223a.36.36 0 0 0 0 .51l1.224 1.222a.36.36 0 0 0 .51 0 .36.36 0 0 0 0-.51l-.97-.967.97-.968a.36.36 0 0 0 0-.51zM37.144 11.128a.362.362 0 0 0-.486.156l-2.381 4.646a.361.361 0 0 0 .642.33l2.382-4.646a.361.361 0 0 0-.157-.486z" fill="#FFF"/><path d="M36.62 22.4h-6.439a.36.36 0 1 1 0-.721h6.44a.36.36 0 1 1 0 .72z" fill="#85BD57"/><path d="M41.395 22.4h-2.887a.36.36 0 1 1 0-.721h2.887a.36.36 0 1 1 0 .72zM33.15 24.203H30.18a.36.36 0 1 1 0-.72h2.968a.36.36 0 1 1 0 .72z" fill="#E7E3E6"/><path d="M41.395 24.203h-6.359a.36.36 0 1 1 0-.72h6.36a.36.36 0 1 1 0 .72z" fill="#53B1E2"/><path d="M31.262 26.007h-1.08a.36.36 0 1 1 0-.721h1.08a.36.36 0 1 1 0 .721z" fill="#BA8C5C"/><path d="M41.395 26.007H33.15a.36.36 0 1 1 0-.721h8.246a.36.36 0 1 1 0 .721z" fill="#E7E3E6"/><path d="M36.328 27.81h-6.147a.36.36 0 1 1 0-.72h6.147a.36.36 0 1 1 0 .72z" fill="#FFC966"/><path d="M41.395 27.81h-3.18a.36.36 0 1 1 0-.72h3.18a.36.36 0 1 1 0 .72z" fill="#9A7CA8"/><path d="M33.401 29.614h-3.22a.36.36 0 1 1 0-.721h3.22a.36.36 0 1 1 0 .72zM41.395 29.614H35.29a.36.36 0 1 1 0-.721h6.106a.36.36 0 1 1 0 .72z" fill="#E7E3E6"/><path d="M7.387 9.4H5.812c-.67 0-1.213.543-1.213 1.213v18.192c0 .67.543 1.213 1.213 1.213h1.575c.67 0 1.213-.543 1.213-1.213V10.613c0-.67-.543-1.213-1.213-1.213z" fill="#4E4C4D"/><path d="M7.25 10.28H5.949a.553.553 0 0 0-.553.552v1.301c0 .305.247.553.553.553h1.3a.553.553 0 0 0 .553-.553v-1.301a.553.553 0 0 0-.552-.553zM7.25 13.57H5.949a.553.553 0 0 0-.553.553v1.3c0 .306.247.553.553.553h1.3a.553.553 0 0 0 .553-.552v-1.301a.553.553 0 0 0-.552-.553zM7.25 16.86H5.949a.553.553 0 0 0-.553.553v1.301c0 .306.247.553.553.553h1.3a.553.553 0 0 0 .553-.553v-1.3a.553.553 0 0 0-.552-.553zM7.25 20.151H5.949a.553.553 0 0 0-.553.553v1.301c0 .305.247.553.553.553h1.3a.553.553 0 0 0 .553-.553v-1.301a.553.553 0 0 0-.552-.553zM7.25 23.442H5.949a.553.553 0 0 0-.553.552v1.302c0 .305.247.552.553.552h1.3a.553.553 0 0 0 .553-.552v-1.302a.553.553 0 0 0-.552-.552zM7.25 26.733H5.949a.553.553 0 0 0-.553.552v1.301c0 .306.247.553.553.553h1.3a.553.553 0 0 0 .553-.553v-1.301a.553.553 0 0 0-.552-.552z" fill="#D2D2D2"/><path d="m19.839 28.35 1.537-1.538a.437.437 0 0 0 0-.619l-1.755-1.755 1.584-.656a.54.54 0 0 0-.085-1.024l-6.11-1.416a.54.54 0 0 0-.648.648l1.417 6.113a.54.54 0 0 0 1.024.085l.662-1.594 1.755 1.756c.17.17.448.17.619 0z" fill="#EC6E62"/><path fill="#D2D2D2" d="M16.024 36.795h17.952v4.339H16.024z"/><path d="M35.048 41.134H14.952a1.777 1.777 0 1 0 0 3.554h20.096a1.777 1.777 0 1 0 0-3.554z" fill="#E7E3E6"/></svg><svg style="enable-background:new 0 0 512 512" xml:space="preserve" viewBox="0 0 512 512" id="css" xmlns="http://www.w3.org/2000/svg"><g style="enable-background:new"><path style="fill-rule:evenodd;clip-rule:evenodd;fill:#1758a7" d="m91.809 117.07 30.784 333.509 133.406 35.922 133.403-35.922 30.789-333.509z"/></g><g style="enable-background:new"><path style="fill-rule:evenodd;clip-rule:evenodd;fill:#379ad6" d="M255.997 144.084v313.768l.301.081 107.959-29.07 24.918-284.779z"/></g><g style="enable-background:new"><path style="fill-rule:evenodd;clip-rule:evenodd;fill:#e8e8e7" d="m255.623 372.537-.072.021-44.57-11.361-2.701-32.718h-41.419l5.402 63.165 83.738 24.993V372.43z"/></g><g style="enable-background:new"><path style="fill-rule:evenodd;clip-rule:evenodd;fill:#fbfbfa" d="M256.001 266.782v40.129h.119l49.502.054-3.177 52.454-46.325 13.051-.119.034v44.087l.119.036.033.01 83.961-24.523 10.893-125.332z"/></g><g style="enable-background:new"><path style="fill-rule:evenodd;clip-rule:evenodd;fill:#e5e4e2" d="m161.002 266.782 3.152 40.087.005.062 91.842.006v-40.155z"/></g><g style="enable-background:new"><path style="fill-rule:evenodd;clip-rule:evenodd;fill:#eee" d="M161.008 266.782h94.76l.233-.101v-40.064z"/></g><g style="enable-background:new"><path style="fill-rule:evenodd;clip-rule:evenodd;fill:#fff" d="m261.553 224.667-5.552 2.325v39.781l97.954-42.106z"/></g><g style="enable-background:new"><path style="fill-rule:evenodd;clip-rule:evenodd;fill:#e7e7e6" d="m152.196 184.515 4.964 40.152h98.841v-40.152z"/></g><g style="enable-background:new"><path d="m256.001 224.667 101.842-40.152H256.001v40.152zm.027 0h97.76l4.056-40.152-101.816 40.152z" style="fill-rule:evenodd;clip-rule:evenodd;fill:#f8f8f7"/></g><g style="enable-background:new"><path d="M158.564 87.892h50.683V68.07h-28.961V48.22h28.961V26.499h-50.683v61.393zm72.343-39.671c6.781 6.781 10.317 10.026 20.125 19.835-5.732 0-20.125.021-20.125.019v19.817h50.687V68.07l-20.246-19.85h20.246V26.499h-50.687v21.722zm122.529-21.722h-50.69v21.722c6.781 6.781 10.319 10.026 20.127 19.835-5.73 0-20.127.021-20.127.019v19.817h50.69V68.07l-20.247-19.85h20.247V26.499z" style="fill-rule:evenodd;clip-rule:evenodd;fill:#1b1b1b"/></g></svg><svg viewBox="0 0 48 48" id="diagram" xmlns="http://www.w3.org/2000/svg"><g data-name="31. site map"><path fill="#7c7d7d" d="M3 1h42a2 2 0 0 1 2 2v6H1V3a2 2 0 0 1 2-2Z"/><path fill="#919191" d="M47 3v4H10a6 6 0 0 1-6-6h41a2 2 0 0 1 2 2Z"/><path fill="#dad7e5" d="M1 9h46v36a2 2 0 0 1-2 2H3a2 2 0 0 1-2-2V9Z"/><path fill="#edebf2" d="M47 9v36h-7A36.11 36.11 0 0 1 4 9Z"/><path fill="#db5669" d="M20 16h8v6h-8z"/><path fill="#f26674" d="M28 16v4h-1a4 4 0 0 1-4-4Z"/><path fill="#fc6" d="M34 28h6v4h-6zm0 8h6v4h-6z"/><path fill="#6fabe6" d="M8 36h6v4H8z"/><path fill="#82bcf4" d="M14 36v2h-2a2 2 0 0 1-2-2Z"/><path fill="#ffde76" d="M40 28v2h-2a2 2 0 0 1-2-2zm0 8v2h-2a2 2 0 0 1-2-2z"/><path fill="#919191" d="M10 32v-2a1 1 0 0 1 1-1h12v-3a1 1 0 0 1 2 0v4a1 1 0 0 1-1 1H12v1a1 1 0 0 1-2 0Z"/><path fill="#919191" d="M30 31h-6a1 1 0 0 1 0-2h6a1 1 0 0 1 0 2Z"/><path fill="#919191" d="M30 39h-6a1 1 0 0 1-1-1v-8a1 1 0 0 1 2 0v7h5a1 1 0 0 1 0 2Z"/><path fill="#edebf2" d="M5 6a1 1 0 1 1 .71-1.71A1 1 0 0 1 5 6zm4 0a1 1 0 0 1-1-1 1 1 0 1 1 1 1zm4 0a1 1 0 1 1 .71-1.71A1 1 0 0 1 13 6zm28 0H25a1 1 0 0 1 0-2h16a1 1 0 0 1 0 2z"/><path d="M20 23h8a1 1 0 0 0 1-1v-6a1 1 0 0 0-1-1h-8a1 1 0 0 0-1 1v6a1 1 0 0 0 1 1zm1-6h6v4h-6zm13 16h6a1 1 0 0 0 1-1v-4a1 1 0 0 0-1-1h-6a1 1 0 0 0-1 1v4a1 1 0 0 0 1 1zm1-4h4v2h-4zm-1 12h6a1 1 0 0 0 1-1v-4a1 1 0 0 0-1-1h-6a1 1 0 0 0-1 1v4a1 1 0 0 0 1 1zm1-4h4v2h-4zM8 41h6a1 1 0 0 0 1-1v-4a1 1 0 0 0-1-1H8a1 1 0 0 0-1 1v4a1 1 0 0 0 1 1zm1-4h4v2H9zm3-5v-1h11v7a1 1 0 0 0 1 1h6a1 1 0 0 0 0-2h-5v-6h5a1 1 0 0 0 0-2h-5v-3a1 1 0 0 0-2 0v3H11a1 1 0 0 0-1 1v2a1 1 0 0 0 2 0z"/><path d="M45 0H3a3 3 0 0 0-3 3v42a3 3 0 0 0 3 3h42a3 3 0 0 0 3-3V3a3 3 0 0 0-3-3ZM2 3a1 1 0 0 1 1-1h42a1 1 0 0 1 1 1v5H2Zm44 42a1 1 0 0 1-1 1H3a1 1 0 0 1-1-1V10h44Z"/><path d="M5.71 4.29A1 1 0 1 0 5 6a1 1 0 0 0 .71-1.71zm4 0a1 1 0 0 0-1.63.33 1 1 0 1 0 1.63-.33zm3.67-.21a1 1 0 1 0 0 1.84 1 1 0 0 0 0-1.84zM41 4H25a1 1 0 0 0 0 2h16a1 1 0 0 0 0-2z"/></g></svg><svg style="enable-background:new 0 0 512 512" xml:space="preserve" viewBox="0 0 512 512" id="html" xmlns="http://www.w3.org/2000/svg"><g style="enable-background:new"><path style="fill-rule:evenodd;clip-rule:evenodd;fill:#e44d26" d="m93.063 116.909 29.656 332.633L255.8 486.486l133.449-36.997 29.689-332.58z"/></g><g style="enable-background:new"><path d="M256 184.903H153.702l.977 10.945 10.027 112.422H256v-40.795h-53.984l-3.729-41.775H256v-40.797zm-45.614 176.303-2.905-32.536h-40.953l5.716 64.056 83.568 23.198.188-.052v-42.445l-.179.048-45.435-12.269z" style="fill-rule:evenodd;clip-rule:evenodd;fill:#ebebeb"/></g><g style="enable-background:new"><path style="fill-rule:evenodd;clip-rule:evenodd;fill:#f16529" d="M256 144.106v314.102l107.832-29.895 25.371-284.207z"/></g><g style="enable-background:new"><path d="M255.858 308.271h50.236l-4.736 52.91-45.5 12.281v42.442l83.634-23.179.614-6.892 9.587-107.403.995-10.955h-94.83v40.796zm0-123.368V225.7H354.4l.818-9.17 1.859-20.682.975-10.945H255.858z" style="fill-rule:evenodd;clip-rule:evenodd;fill:#fff"/></g><g style="enable-background:new"><path d="M163.079 46.997h-18.965V26.514h-20.731v62.028h20.732V67.771h18.964v20.771h20.732V26.514h-20.733v20.483zm29.745.086h18.252v41.459h20.733V47.083h18.26V26.514h-57.245v20.569zm101.246 1.226-13.299-21.795h-21.617v62.028h20.285V57.797l14.273 22.055h.357l14.263-22.055v30.745h20.646V26.514h-21.626L294.07 48.309zm65.966 19.73V26.514h-20.738v62.028h49.894V68.039h-29.156z" style="fill-rule:evenodd;clip-rule:evenodd"/></g></svg><svg style="enable-background:new 0 0 512 512" xml:space="preserve" viewBox="0 0 512 512" id="js" xmlns="http://www.w3.org/2000/svg"><path style="fill:#f0db4f" d="M26.002 26.001h459.996v459.998H26.002z"/><path d="M276.331 384.759c0 44.767-26.286 65.2-64.586 65.2-34.601 0-54.623-17.865-64.892-39.529l35.218-21.255c6.777 12.013 12.938 22.177 27.826 22.177 14.169 0 23.207-5.544 23.207-27.208V237.21h43.227v147.549zM378.598 449.959c-40.147 0-66.124-19.099-78.754-44.151l35.219-20.332c9.241 15.095 21.356 26.286 42.611 26.286 17.866 0 29.364-8.932 29.364-21.355 0-14.787-11.704-20.021-31.52-28.75l-10.781-4.62c-31.214-13.246-51.853-29.983-51.853-65.2 0-32.447 24.745-57.09 63.248-57.09 27.518 0 47.232 9.549 61.402 34.603l-33.679 21.562c-7.392-13.246-15.401-18.481-27.825-18.481-12.63 0-20.639 8.01-20.639 18.481 0 12.938 8.009 18.176 26.594 26.285l10.78 4.621c36.759 15.71 57.397 31.832 57.397 67.974.002 38.81-30.597 60.167-71.564 60.167z" style="fill:#323330"/></svg><svg fill="none" viewBox="0 0 18 17" id="star" xmlns="http://www.w3.org/2000/svg"><path d="m9 0 2.1 6.5H18l-5.6 4 2.2 6.5L9 13l-5.6 4 2.2-6.5-5.6-4h6.9L9 0Z" fill="#83B3D3"/></svg><svg viewBox="0 0 32 32" id="website" xmlns="http://www.w3.org/2000/svg"><defs><style>.icls-2{fill:#0593ff}.icls-3{fill:#0e6ae0}</style></defs><g id="iBrowser"><rect height="24" rx="4" ry="4" width="28" x="2" y="4" style="fill:#d8e1ef"/><path class="icls-2" d="M30 8v2H2V8a4 4 0 0 1 4-4h20a4 4 0 0 1 4 4ZM24 16H8a1 1 0 0 1 0-2h16a1 1 0 0 1 0 2ZM24 20H8a1 1 0 0 1 0-2h16a1 1 0 0 1 0 2ZM15 24H8a1 1 0 0 1 0-2h7a1 1 0 0 1 0 2Z"/><circle class="icls-3" cx="13" cy="7" r="1"/><circle class="icls-3" cx="10" cy="7" r="1"/><circle class="icls-3" cx="7" cy="7" r="1"/></g></svg></svg>