<?xml version="1.0" encoding="utf-8"?><svg viewBox="0 0 100 39" xmlns="http://www.w3.org/2000/svg" xmlns:xlink="http://www.w3.org/1999/xlink"><style>:root>svg{display:none}:root>svg:target{display:block}</style><svg fill="none" viewBox="0 0 32 32" id="Plus" xmlns="http://www.w3.org/2000/svg"><path d="M10 16h12M16 10v12" stroke="#000" stroke-width="2" stroke-linecap="round" stroke-linejoin="round"/></svg><svg fill="none" viewBox="0 0 28 28" id="bag" xmlns="http://www.w3.org/2000/svg"><path d="M24.386 8.876v-.75a.75.75 0 0 0-.741.865l.74-.115Zm1.98 12.738.742-.115-.741.115Zm-2.824 3.261v.75-.75Zm-19.08 0v-.75H4.46v.75Zm-2.829-3.261-.74-.115.74.115ZM3.614 8.876l.741.115-.74-.115Zm2.83-2.401v.75-.75Zm15.116 0v.75-.75Zm2.827 2.4v.75a.75.75 0 0 0 .741-.865l-.74.116Zm-.742.116 1.98 12.738 1.483-.23L25.127 8.76l-1.482.23Zm1.98 12.738c.047.295.027.597-.055.884l1.44.416c.144-.497.177-1.02.098-1.53l-1.482.23Zm-.055.884a2.07 2.07 0 0 1-.425.782l1.133.983c.34-.392.59-.852.733-1.349l-1.441-.416Zm-.425.782a2.109 2.109 0 0 1-.72.538l.622 1.365a3.608 3.608 0 0 0 1.231-.92l-1.133-.983Zm-.72.538a2.135 2.135 0 0 1-.884.192l.002 1.5c.519 0 1.032-.112 1.504-.327l-.622-1.365Zm-.883.192H4.462v1.5h19.08v-1.5Zm-19.081 0c-.305 0-.607-.065-.884-.191l-.621 1.365c.472.215.986.326 1.505.326v-1.5Zm-.884-.191a2.109 2.109 0 0 1-.72-.538l-1.134.983c.34.392.76.705 1.233.92l.62-1.365Zm-.72-.538a2.072 2.072 0 0 1-.426-.782L.99 23.03c.143.497.394.957.733 1.349l1.133-.983Zm-.426-.782a2.052 2.052 0 0 1-.057-.885L.892 21.5A3.553 3.553 0 0 0 .99 23.03l1.44-.416Zm-.057-.885L4.355 8.991l-1.482-.23-1.98 12.738 1.481.23ZM4.355 8.991c.077-.49.327-.938.71-1.262l-.97-1.144A3.573 3.573 0 0 0 2.873 8.76l1.482.23Zm.71-1.262a2.129 2.129 0 0 1 1.378-.504l.001-1.5c-.86 0-1.694.304-2.35.86l.971 1.144Zm1.379-.504H21.56v-1.5H6.444v1.5Zm15.116 0c.506 0 .995.18 1.377.504l.97-1.143a3.629 3.629 0 0 0-2.348-.861v1.5Zm1.377.504c.382.325.633.772.71 1.262l1.481-.23a3.573 3.573 0 0 0-1.22-2.175l-.97 1.143Zm1.45.397h-.001v1.5h.001v-1.5Zm-14.045-1.54c.341-2.298 2.135-3.438 4.003-3.436 1.873.003 3.712 1.155 4.116 3.455l1.478-.26c-.549-3.122-3.105-4.692-5.592-4.695-2.49-.003-5.02 1.567-5.489 4.715l1.484.22Z" fill="#000"/></svg><svg fill="none" viewBox="0 0 32 32" id="burger" xmlns="http://www.w3.org/2000/svg"><path stroke="#000" stroke-width="1.5" d="M0 13.25h32M14 22.25h18"/></svg><svg fill="none" viewBox="0 0 22 22" id="cross" xmlns="http://www.w3.org/2000/svg"><path d="m17.5 4.5-13 13M4.5 4.5l13 13" stroke="#000" stroke-width="1.5"/></svg><svg fill="none" viewBox="0 0 100 22" id="logo" xmlns="http://www.w3.org/2000/svg"><path d="M5.222 18.707c0 .656.068 1.131.206 1.426.137.294.39.498.755.61.367.091.962.137 1.787.137h3.744c1.306 0 2.348-.396 3.126-1.189.779-.792 1.294-1.89 1.546-3.293 0-.068.058-.09.172-.068.137 0 .206.034.206.102-.206 1.879-.31 3.43-.31 4.651 0 .181-.033.317-.102.408-.069.068-.206.102-.412.102H.069c-.046 0-.069-.068-.069-.204 0-.136.023-.204.069-.204.87 0 1.5-.056 1.89-.17.411-.113.686-.328.824-.645.137-.34.206-.848.206-1.527V3.123c0-.679-.069-1.177-.206-1.493-.138-.317-.413-.532-.825-.645C1.568.849.94.78.068.78.024.78 0 .713 0 .577 0 .441.023.373.069.373l1.683.034c.962.046 1.74.068 2.336.068.641 0 1.443-.022 2.405-.068L8.142.373c.068 0 .103.068.103.204 0 .136-.035.204-.103.204-.848 0-1.478.068-1.89.204-.39.113-.664.34-.824.679-.138.316-.206.814-.206 1.493v15.55ZM32.21 22c-2.13 0-4.03-.487-5.702-1.46a10.484 10.484 0 0 1-3.848-4.006c-.893-1.698-1.34-3.542-1.34-5.534 0-2.331.596-4.323 1.787-5.975a11.142 11.142 0 0 1 4.569-3.769C29.554.42 31.466 0 33.413 0c2.175 0 4.088.51 5.736 1.528 1.65.996 2.909 2.32 3.78 3.972a10.904 10.904 0 0 1 1.339 5.262c0 2.06-.55 3.95-1.649 5.67-1.1 1.72-2.576 3.078-4.431 4.074C36.355 21.502 34.362 22 32.21 22Zm1.203-.713c1.557 0 2.954-.373 4.19-1.12 1.26-.747 2.245-1.845 2.955-3.294.733-1.448 1.1-3.168 1.1-5.16 0-2.128-.402-4.018-1.203-5.67-.802-1.652-1.935-2.942-3.401-3.87C35.61 1.245 33.916.78 31.97.78c-2.52 0-4.49.803-5.909 2.41-1.42 1.607-2.13 3.814-2.13 6.62 0 2.128.4 4.075 1.203 5.84.801 1.743 1.923 3.124 3.366 4.142 1.443.996 3.08 1.494 4.913 1.494ZM62.305 22c-2.496 0-4.672-.475-6.527-1.426-1.855-.95-3.275-2.24-4.26-3.87-.962-1.63-1.443-3.452-1.443-5.466 0-2.196.561-4.142 1.684-5.84 1.145-1.697 2.702-3.021 4.672-3.972C58.423.476 60.667 0 63.164 0c1.122 0 2.187.113 3.195.34 1.03.203 1.866.497 2.507.882.183.113.287.215.31.306.045.068.08.226.102.475l.413 3.803c0 .067-.069.113-.206.135-.115 0-.183-.034-.207-.101-.503-1.63-1.42-2.886-2.748-3.769-1.305-.883-2.92-1.324-4.843-1.324-2.886 0-5.119.826-6.7 2.478-1.58 1.653-2.37 3.916-2.37 6.79 0 2.196.447 4.165 1.34 5.908.916 1.72 2.176 3.067 3.779 4.04 1.603.973 3.401 1.46 5.393 1.46 1.168 0 2.073-.102 2.714-.306.641-.203 1.111-.6 1.409-1.188.297-.588.446-1.46.446-2.614 0-1.177-.08-1.992-.24-2.445-.138-.475-.47-.792-.996-.95-.504-.159-1.386-.238-2.646-.238-.137 0-.206-.09-.206-.271 0-.068.012-.125.035-.17.045-.068.091-.102.137-.102 1.787.113 3.23.17 4.329.17 1.076 0 2.198-.034 3.366-.102.046 0 .08.034.103.102.046.045.069.09.069.135 0 .159-.057.238-.172.238-.55-.023-.939.057-1.168.238-.229.158-.378.498-.447 1.018-.068.52-.102 1.426-.102 2.716 0 1.019.034 1.743.102 2.173.092.43.138.702.138.815 0 .136-.023.226-.069.272-.046.045-.149.09-.309.135-2.771.634-5.21.951-7.317.951ZM87.942 22c-2.13 0-4.03-.487-5.702-1.46a10.482 10.482 0 0 1-3.848-4.006c-.893-1.698-1.34-3.542-1.34-5.534 0-2.331.596-4.323 1.787-5.975a11.14 11.14 0 0 1 4.569-3.769C85.286.42 87.198 0 89.145 0c2.175 0 4.088.51 5.737 1.528 1.648.996 2.908 2.32 3.778 3.972a10.905 10.905 0 0 1 1.34 5.262c0 2.06-.55 3.95-1.649 5.67-1.1 1.72-2.576 3.078-4.431 4.074-1.833.996-3.825 1.494-5.978 1.494Zm1.203-.713c1.557 0 2.954-.373 4.19-1.12 1.26-.747 2.245-1.845 2.955-3.294.733-1.448 1.1-3.168 1.1-5.16 0-2.128-.402-4.018-1.203-5.67-.802-1.652-1.935-2.942-3.401-3.87C91.343 1.245 89.648.78 87.702.78c-2.52 0-4.489.803-5.909 2.41-1.42 1.607-2.13 3.814-2.13 6.62 0 2.128.401 4.075 1.203 5.84.801 1.743 1.923 3.124 3.366 4.142 1.443.996 3.08 1.494 4.913 1.494Z" fill="#000"/></svg><svg fill="none" viewBox="0 0 14 2" id="minus" xmlns="http://www.w3.org/2000/svg"><path d="M1 1h12" stroke="#000" stroke-width="2" stroke-linecap="round" stroke-linejoin="round"/></svg><svg fill="none" viewBox="0 0 27 39" id="pin" xmlns="http://www.w3.org/2000/svg"><path d="M26.428 13.188c0 7.284-6.085 18.915-13.214 25.509C6.702 32.764 0 20.471 0 13.188 0 5.904 5.916 0 13.214 0s13.214 5.904 13.214 13.188Z" fill="#000"/><ellipse cx="13.214" cy="13.01" rx="8.471" ry="8.34" fill="#fff"/></svg><svg fill="none" viewBox="0 0 16 16" id="search" xmlns="http://www.w3.org/2000/svg"><path d="m11.682 11.682 2.946 2.947" stroke="#6E6E6E" stroke-linejoin="round"/><path d="M13.155 7.263a5.892 5.892 0 1 1-11.784 0 5.892 5.892 0 0 1 11.784 0Z" stroke="#6E6E6E"/></svg><svg fill="none" viewBox="0 0 4 9" id="slash" xmlns="http://www.w3.org/2000/svg"><path d="M2.73.393h.891L.891 9H0L2.73.393Z" fill="#6E6E6E"/></svg></svg>