<svg width="28" height="28" viewBox="0 0 28 28" fill="none" xmlns="http://www.w3.org/2000/svg">
<path d="M24.3858 8.87554V8.12554C24.1668 8.12554 23.9587 8.22129 23.8162 8.38765C23.6737 8.55401 23.6111 8.77435 23.6447 8.99079L24.3858 8.87554ZM26.3669 21.614L27.108 21.4988L27.108 21.4987L26.3669 21.614ZM23.5419 24.875V25.625H23.5426L23.5419 24.875ZM4.46113 24.875V24.125H4.46104L4.46113 24.875ZM1.63334 21.614L0.892246 21.4987L0.892234 21.4988L1.63334 21.614ZM3.61437 8.87554L4.35546 8.99079L4.35547 8.99071L3.61437 8.87554ZM6.44359 6.47504L6.44313 7.22504H6.44359V6.47504ZM21.5595 6.47504V7.22504H21.5596L21.5595 6.47504ZM24.3873 8.87554V9.62554C24.6063 9.62554 24.8144 9.52979 24.9569 9.36345C25.0993 9.19711 25.162 8.97679 25.1284 8.76036L24.3873 8.87554ZM23.6447 8.99079L25.6258 21.7293L27.108 21.4987L25.1269 8.76028L23.6447 8.99079ZM25.6258 21.7292C25.6716 22.0244 25.6525 22.326 25.5696 22.6134L27.0109 23.0291C27.1542 22.532 27.1874 22.0099 27.108 21.4988L25.6258 21.7292ZM25.5696 22.6134C25.4867 22.9008 25.3419 23.1677 25.1445 23.3955L26.2782 24.3777C26.6174 23.9861 26.8675 23.5262 27.0109 23.0291L25.5696 22.6134ZM25.1445 23.3955C24.947 23.6234 24.7017 23.807 24.4249 23.9331L25.0468 25.2981C25.5189 25.083 25.9391 24.7692 26.2782 24.3777L25.1445 23.3955ZM24.4249 23.9331C24.1481 24.0592 23.8466 24.1248 23.5413 24.125L23.5426 25.625C24.0617 25.6246 24.5748 25.5131 25.0468 25.2981L24.4249 23.9331ZM23.5419 24.125H4.46113V25.625H23.5419V24.125ZM4.46104 24.125C4.15551 24.1251 3.85382 24.0597 3.57674 23.9337L2.95582 25.2992C3.42832 25.514 3.94182 25.6251 4.46122 25.625L4.46104 24.125ZM3.57674 23.9337C3.29968 23.8077 3.05407 23.6242 2.85642 23.3963L1.72315 24.379C2.0627 24.7706 2.48331 25.0843 2.95582 25.2992L3.57674 23.9337ZM2.85642 23.3963C2.6588 23.1684 2.51375 22.9014 2.43072 22.6139L0.989586 23.03C1.13317 23.5273 1.38359 23.9874 1.72315 24.379L2.85642 23.3963ZM2.43072 22.6139C2.3477 22.3263 2.32853 22.0246 2.37444 21.7292L0.892234 21.4988C0.812753 22.0102 0.845993 22.5326 0.989586 23.03L2.43072 22.6139ZM2.37443 21.7293L4.35546 8.99079L2.87327 8.76028L0.892246 21.4987L2.37443 21.7293ZM4.35547 8.99071C4.43154 8.50125 4.68247 8.05326 5.06497 7.72873L4.09452 6.58495C3.43903 7.14111 3.00502 7.91254 2.87326 8.76036L4.35547 8.99071ZM5.06497 7.72873C5.44765 7.40403 5.9365 7.22473 6.44313 7.22504L6.44405 5.72504C5.58337 5.72452 4.74982 6.02895 4.09452 6.58495L5.06497 7.72873ZM6.44359 7.22504H21.5595V5.72504H6.44359V7.22504ZM21.5596 7.22504C22.066 7.22498 22.5546 7.4044 22.9371 7.72907L23.9078 6.58553C23.2529 6.02957 22.4198 5.72494 21.5594 5.72504L21.5596 7.22504ZM22.9371 7.72907C23.3193 8.05358 23.5701 8.50142 23.6462 8.99071L25.1284 8.76036C24.9967 7.91285 24.5629 7.14165 23.9078 6.58553L22.9371 7.72907ZM24.3873 8.12554H24.3858V9.62554H24.3873V8.12554ZM10.3419 6.58532C10.6835 4.28775 12.477 3.14754 14.3454 3.15003C16.2181 3.15252 18.0574 4.30525 18.4614 6.60481L19.9388 6.34527C19.3903 3.22309 16.8344 1.65334 14.3474 1.65003C11.8563 1.64672 9.32611 3.21738 8.85825 6.36477L10.3419 6.58532Z" fill="black"/>
</svg>
