<svg xmlns="http://www.w3.org/2000/svg" viewBox="0 0 48 48"><g data-name="31. site map"><path fill="#7c7d7d" d="M3 1h42a2 2 0 0 1 2 2v6H1V3a2 2 0 0 1 2-2Z"/><path fill="#919191" d="M47 3v4H10a6 6 0 0 1-6-6h41a2 2 0 0 1 2 2Z"/><path fill="#dad7e5" d="M1 9h46v36a2 2 0 0 1-2 2H3a2 2 0 0 1-2-2V9Z"/><path fill="#edebf2" d="M47 9v36h-7A36.11 36.11 0 0 1 4 9Z"/><path fill="#db5669" d="M20 16h8v6h-8z"/><path fill="#f26674" d="M28 16v4h-1a4 4 0 0 1-4-4Z"/><path fill="#fc6" d="M34 28h6v4h-6zM34 36h6v4h-6z"/><path fill="#6fabe6" d="M8 36h6v4H8z"/><path fill="#82bcf4" d="M14 36v2h-2a2 2 0 0 1-2-2Z"/><path fill="#ffde76" d="M40 28v2h-2a2 2 0 0 1-2-2zm0 8v2h-2a2 2 0 0 1-2-2z"/><path fill="#919191" d="M10 32v-2a1 1 0 0 1 1-1h12v-3a1 1 0 0 1 2 0v4a1 1 0 0 1-1 1H12v1a1 1 0 0 1-2 0Z"/><path fill="#919191" d="M30 31h-6a1 1 0 0 1 0-2h6a1 1 0 0 1 0 2Z"/><path fill="#919191" d="M30 39h-6a1 1 0 0 1-1-1v-8a1 1 0 0 1 2 0v7h5a1 1 0 0 1 0 2Z"/><path fill="#edebf2" d="M5 6a1 1 0 1 1 .71-1.71A1 1 0 0 1 5 6zm4 0a1 1 0 0 1-1-1 1 1 0 1 1 1 1zm4 0a1 1 0 1 1 .71-1.71A1 1 0 0 1 13 6zm28 0H25a1 1 0 0 1 0-2h16a1 1 0 0 1 0 2z"/><path d="M20 23h8a1 1 0 0 0 1-1v-6a1 1 0 0 0-1-1h-8a1 1 0 0 0-1 1v6a1 1 0 0 0 1 1zm1-6h6v4h-6zm13 16h6a1 1 0 0 0 1-1v-4a1 1 0 0 0-1-1h-6a1 1 0 0 0-1 1v4a1 1 0 0 0 1 1zm1-4h4v2h-4zm-1 12h6a1 1 0 0 0 1-1v-4a1 1 0 0 0-1-1h-6a1 1 0 0 0-1 1v4a1 1 0 0 0 1 1zm1-4h4v2h-4zM8 41h6a1 1 0 0 0 1-1v-4a1 1 0 0 0-1-1H8a1 1 0 0 0-1 1v4a1 1 0 0 0 1 1zm1-4h4v2H9zm3-5v-1h11v7a1 1 0 0 0 1 1h6a1 1 0 0 0 0-2h-5v-6h5a1 1 0 0 0 0-2h-5v-3a1 1 0 0 0-2 0v3H11a1 1 0 0 0-1 1v2a1 1 0 0 0 2 0z"/><path d="M45 0H3a3 3 0 0 0-3 3v42a3 3 0 0 0 3 3h42a3 3 0 0 0 3-3V3a3 3 0 0 0-3-3ZM2 3a1 1 0 0 1 1-1h42a1 1 0 0 1 1 1v5H2Zm44 42a1 1 0 0 1-1 1H3a1 1 0 0 1-1-1V10h44Z"/><path d="M5.71 4.29A1 1 0 1 0 5 6a1 1 0 0 0 .71-1.71zm4 0a1 1 0 0 0-1.63.33 1 1 0 1 0 1.63-.33zm3.67-.21a1 1 0 1 0 0 1.84 1 1 0 0 0 0-1.84zM41 4H25a1 1 0 0 0 0 2h16a1 1 0 0 0 0-2z"/></g></svg>